<svg xmlns="http://www.w3.org/2000/svg" height="40" viewBox="0 -960 960 960" width="40"><path d="M480.146-496.321q26.379 0 45.219-18.723 18.839-18.723 18.839-45.102 0-26.379-18.832-45.219-18.832-18.839-45.365-18.839-26.532 0-45.109 18.832t-18.577 45.365q0 26.532 18.723 45.109t45.102 18.577ZM480-153.396q129.04-115.135 195.117-219.119 66.076-103.984 66.076-179.356 0-118.592-75.28-193.957t-185.876-75.365q-110.597 0-185.651 75.386-75.053 75.387-75.053 194.051 0 75.42 66.557 179.322Q352.447-268.531 480-153.396Zm0 63.78q-155.884-135.32-232.217-251.019-76.334-115.698-76.334-211.342 0-145.057 93.2-231.078 93.2-86.021 215.423-86.021t215.613 86.063q93.391 86.063 93.391 231.035 0 95.58-76.596 211.311Q635.884-224.936 480-89.616ZM480-552Z" fill="#fff"/></svg>