<svg xmlns="http://www.w3.org/2000/svg" height="40" viewBox="0 -960 960 960" width="40"><path d="M480.134-104.745q-77.861 0-146.445-29.57-68.585-29.57-119.319-80.262-50.734-50.691-80.179-119.1-29.446-68.409-29.446-146.189 0-77.861 29.57-146.445 29.57-68.585 80.262-119.319 50.691-50.734 119.1-80.179 68.409-29.446 146.189-29.446 77.861 0 146.445 29.57 68.585 29.57 119.319 80.262 50.734 50.691 80.179 119.1 29.446 68.409 29.446 146.189 0 77.861-29.57 146.445-29.57 68.585-80.262 119.319-50.691 50.734-119.1 80.179-68.409 29.446-146.189 29.446Zm-41.147-48.998v-79.898q-33.955 0-57.247-24.292-23.291-24.292-23.291-58.038v-41.496L161.038-554.91q-3.82 18.839-6.115 37.429-2.295 18.59-2.295 37.513 0 124.711 81.304 217.936 81.303 93.224 205.055 108.289Zm282.552-104.5q20.82-22.513 36.788-48.64 15.968-26.126 27.051-54.423 11.082-28.297 16.538-58.064 5.456-29.768 5.456-60.616 0-101.664-55.513-184.942-55.513-83.277-149.423-121.175v17.935q0 34.014-23.389 58.418-23.389 24.404-57.559 24.404h-82.501v82.251q0 17.294-12.499 28.593t-29.484 11.299h-80.927V-480h246.63q17.248 0 28.489 12.319 11.24 12.319 11.24 29.431v122.173h41.378q27.059 0 48.518 15.939 21.458 15.94 29.207 41.895Z" fill="#fff"/></svg>